<?xml version="1.0" encoding="UTF-8"?>
<svg version="1.1" viewBox="0 0 800 800" width="200" height="200" xmlns="http://www.w3.org/2000/svg">
<path transform="translate(0)" d="m0 0h800v800h-800z" fill="#FEFEFD"/>
<path transform="translate(606,151)" d="m0 0h2v224l-10 9-14 11-16 13-14 11-11 9-14 11-16 13-10 8-14 11-17 14-14 11-16 13-14 11-11 9-14 11-16 13-10 8-14 11-16 13-10 8-14 11-16 13-10 8-14 11-16 13-28 22-8 7h-2v-218l10-9 14-11 13-11 14-11 8-7 14-11 13-11 14-11 14-12 14-11 13-11 14-11 13-11 10-8 17-14 11-9 16-13 14-11 14-12 16-13 14-11 14-12 14-11 13-11 10-8 22-18 17-14z" fill="#036CC2"/>
<path transform="translate(229,150)" d="m0 0 14 8 20 12 32 19 2 2 1 204-2 4-16-9-23-13-28-16z" fill="#036CC2"/>
</svg>
